<?xml version="1.0" standalone="no"?>
<!DOCTYPE svg PUBLIC "-//W3C//DTD SVG 20010904//EN"
 "http://www.w3.org/TR/2001/REC-SVG-20010904/DTD/svg10.dtd">
<svg version="1.0" xmlns="http://www.w3.org/2000/svg"
 width="200.000000pt" height="200.000000pt" viewBox="0 0 200.000000 200.000000"
 preserveAspectRatio="xMidYMid meet">

<g transform="translate(0.000000,200.000000) scale(0.100000,-0.100000)"
fill="#000000" stroke="none">
<path d="M482 1538 c-9 -9 -12 -85 -12 -279 0 -230 2 -270 16 -283 13 -13 43
-16 175 -16 l159 0 0 -60 0 -60 -30 0 c-16 0 -30 -4 -30 -10 0 -6 52 -10 135
-10 83 0 135 4 135 10 0 6 -14 10 -30 10 l-31 0 3 58 3 57 160 5 c88 3 166 9
173 13 17 11 18 547 0 565 -17 17 -809 17 -826 0z m812 -14 c14 -13 16 -51 16
-263 0 -182 -3 -252 -12 -264 -12 -16 -46 -17 -408 -15 l-395 3 -3 269 c-2
209 1 271 10 278 7 4 185 8 395 8 334 0 384 -2 397 -16z m-334 -624 l0 -60
-60 0 -60 0 0 60 0 60 60 0 60 0 0 -60z"/>
<path d="M891 1267 c-35 -87 -61 -160 -58 -163 8 -8 19 15 77 160 28 71 49
136 48 145 -2 9 -32 -55 -67 -142z"/>
<path d="M663 1316 c-51 -28 -93 -54 -93 -58 0 -5 176 -108 186 -108 2 0 4 4
4 9 0 5 -37 29 -81 54 l-82 44 69 38 c90 50 107 62 97 68 -4 2 -50 -19 -100
-47z"/>
<path d="M1032 1360 c2 -7 35 -31 73 -52 39 -22 73 -43 78 -47 4 -4 -29 -27
-73 -52 -68 -37 -96 -59 -75 -59 11 0 185 102 185 108 0 4 -17 16 -38 28 -20
11 -63 36 -96 54 -32 18 -57 27 -54 20z"/>
<path d="M1774 747 c-22 -26 -104 -222 -104 -250 0 -30 0 -30 21 -11 21 19 49
66 49 81 -1 4 -7 -4 -16 -19 -8 -16 -20 -25 -28 -22 -11 4 -4 27 30 102 24 53
50 98 59 100 20 5 20 2 -15 -75 -17 -36 -29 -68 -27 -70 7 -7 68 139 65 155
-4 20 -20 24 -34 9z m-74 -236 c0 -6 -4 -13 -10 -16 -5 -3 -10 1 -10 9 0 9 5
16 10 16 6 0 10 -4 10 -9z"/>
<path d="M707 734 c-13 -13 -7 -52 9 -58 22 -9 46 13 42 38 -3 21 -37 34 -51
20z"/>
<path d="M587 723 l-28 -4 5 -65 c3 -35 9 -93 12 -129 5 -54 9 -65 23 -65 16
0 19 13 25 98 4 53 10 114 13 135 6 39 7 38 -50 30z"/>
<path d="M1450 688 c-27 -44 -25 -87 5 -128 29 -40 31 -57 9 -82 -16 -16 -16
-18 0 -24 23 -9 64 21 72 52 5 17 0 41 -13 68 -22 44 -17 77 12 94 15 8 13 12
-13 31 -40 28 -49 27 -72 -11z"/>
<path d="M1297 703 c-3 -5 -1 -48 4 -98 10 -107 6 -125 -27 -125 -27 0 -32
-15 -8 -24 25 -9 49 -7 68 7 16 12 21 35 40 195 l7 52 -40 0 c-22 0 -42 -3
-44 -7z"/>
<path d="M1611 651 l-34 -28 31 -21 c16 -12 34 -22 39 -22 4 0 -7 10 -25 21
l-33 22 33 28 c18 15 31 28 28 28 -3 0 -20 -12 -39 -28z"/>
<path d="M1855 656 l30 -26 -30 -26 c-16 -14 -21 -20 -10 -15 28 15 59 40 54
44 -2 2 -20 14 -39 26 l-35 23 30 -26z"/>
<path d="M135 626 c-32 -42 -44 -122 -22 -151 12 -15 27 -20 65 -20 66 0 82
15 82 77 0 45 -4 54 -39 89 -21 22 -43 39 -49 39 -6 0 -23 -15 -37 -34z m83
-84 l3 -51 -36 -7 c-20 -3 -41 -2 -46 3 -20 20 39 119 65 110 6 -2 12 -27 14
-55z"/>
<path d="M413 625 l-36 -36 6 31 c7 32 -2 37 -51 24 -22 -6 -23 -10 -17 -63
12 -111 15 -121 35 -121 14 0 20 7 20 24 0 31 19 87 38 109 22 25 32 5 32 -70
l0 -63 33 0 32 0 -6 78 c-5 77 -20 122 -40 122 -6 0 -27 -16 -46 -35z"/>
<path d="M952 653 c-8 -3 -22 -19 -33 -37 l-19 -31 0 33 c0 27 -4 32 -22 32
-46 0 -51 -11 -43 -104 6 -74 10 -86 26 -86 13 0 20 10 25 38 8 45 41 112 54
112 6 0 10 -33 10 -75 l0 -75 36 0 37 0 -7 77 c-3 42 -13 87 -21 100 -16 24
-20 25 -43 16z"/>
<path d="M1112 638 c-40 -43 -58 -143 -29 -166 34 -28 137 -26 137 3 0 12 -12
15 -57 13 -46 -2 -58 0 -58 12 0 11 15 17 53 20 82 9 96 50 36 106 -42 40 -53
42 -82 12z m73 -58 c9 -28 -2 -40 -36 -40 -35 0 -36 6 -7 37 26 28 35 29 43 3z"/>
<path d="M710 644 c-13 -4 -14 -17 -6 -94 7 -75 12 -90 26 -90 18 0 20 6 36
138 6 50 6 52 -17 51 -13 -1 -31 -3 -39 -5z"/>
</g>
</svg>
